<?xml version="1.0" standalone="no"?>
<!DOCTYPE svg PUBLIC "-//W3C//DTD SVG 20010904//EN"
 "http://www.w3.org/TR/2001/REC-SVG-20010904/DTD/svg10.dtd">
<svg version="1.0" xmlns="http://www.w3.org/2000/svg"
 width="500.000000pt" height="500.000000pt" viewBox="0 0 500.000000 500.000000"
 preserveAspectRatio="xMidYMid meet">

<g transform="translate(0.000000,500.000000) scale(0.100000,-0.100000)"
fill="#000000" stroke="none">
<path d="M2100 2726 l0 -846 258 0 c281 0 343 8 411 53 109 72 161 230 161
492 0 217 -43 326 -148 379 l-33 17 43 23 c56 29 104 107 114 182 3 30 4 112
2 182 -7 195 -50 277 -173 334 -48 22 -62 23 -342 26 l-293 3 0 -845z m456
563 c17 -19 19 -38 19 -158 0 -180 -14 -203 -112 -192 l-33 3 0 184 0 184 53
0 c42 0 58 -5 73 -21z m-3 -639 c38 -30 47 -77 47 -235 0 -193 -23 -234 -127
-235 l-43 0 0 245 0 245 49 0 c34 0 56 -6 74 -20z"/>
<path d="M2977 1862 c-44 -30 -56 -53 -57 -109 0 -41 5 -58 26 -82 76 -91 224
-41 224 76 0 79 -51 133 -127 133 -21 0 -50 -8 -66 -18z"/>
</g>
</svg>
