<?xml version="1.0" standalone="no"?>
<!DOCTYPE svg PUBLIC "-//W3C//DTD SVG 20010904//EN"
 "http://www.w3.org/TR/2001/REC-SVG-20010904/DTD/svg10.dtd">
<svg version="1.0" xmlns="http://www.w3.org/2000/svg"
 width="295.000000pt" height="150.000000pt" viewBox="0 0 295.000000 150.000000"
 preserveAspectRatio="xMidYMid meet">

<g transform="translate(0.000000,150.000000) scale(0.100000,-0.100000)"
fill="#000000" stroke="none">
<path d="M544 1076 c-3 -9 -4 -22 -1 -29 3 -8 1 -20 -4 -28 -7 -11 -9 -11 -9
4 0 9 -9 26 -20 37 -17 17 -33 20 -110 20 l-90 0 0 -240 0 -240 74 0 c93 0
123 11 140 51 14 34 24 23 21 -23 -2 -27 -1 -28 52 -28 l55 0 -5 34 c-2 19 -1
40 4 47 6 10 9 8 9 -8 0 -11 14 -33 31 -47 43 -37 124 -37 168 -1 16 14 31 36
33 48 3 19 6 18 21 -14 22 -44 52 -59 117 -59 59 0 97 28 110 80 7 32 8 30 9
-22 l1 -58 50 0 50 0 1 88 1 87 27 -85 28 -85 52 -3 c40 -2 52 0 49 10 -1 7
-19 59 -37 115 l-35 102 24 76 c13 41 27 72 30 68 4 -5 15 -73 24 -153 10 -80
20 -162 23 -182 l6 -38 63 0 c58 0 64 2 69 23 6 25 55 427 55 449 0 10 -11 14
-42 12 -50 -2 -51 -5 -63 -162 -11 -151 -20 -148 -35 12 -7 80 -17 146 -22
147 -4 0 -25 1 -45 1 -38 1 -38 1 -35 -35 l4 -37 -49 0 -49 0 -21 -62 -21 -63
-1 103 -1 102 -50 0 -50 0 -2 -102 c-1 -57 -3 -86 -5 -66 -12 108 -187 133
-229 32 l-15 -36 -17 33 c-21 43 -75 72 -121 65 -48 -7 -80 -32 -100 -78 l-17
-40 1 94 0 93 -48 3 c-35 2 -49 -1 -53 -12z m-106 -118 c-2 -41 -7 -54 -20
-56 -15 -3 -18 5 -18 52 0 50 2 56 21 56 18 0 20 -5 17 -52z m356 -34 c3 -9 6
-62 6 -119 0 -110 -5 -135 -25 -135 -7 0 -16 7 -19 16 -8 21 -8 239 1 247 11
12 31 7 37 -9z m246 -29 l0 -45 55 0 55 0 0 -47 c0 -30 -4 -43 -9 -35 -5 9
-24 12 -52 10 l-44 -3 -1 -43 c-1 -45 -15 -69 -33 -58 -12 8 -16 248 -4 259
19 20 33 5 33 -38z m-496 -35 c2 -46 1 -50 -10 -34 -7 11 -19 25 -25 33 -10
11 -9 15 4 23 10 5 17 16 17 25 0 39 11 1 14 -47z m-106 -42 c13 -13 16 -85 6
-112 -3 -9 -15 -16 -25 -16 -17 0 -19 8 -19 63 0 76 10 93 38 65z"/>
<path d="M2120 845 l0 -245 50 0 50 0 0 160 c0 136 2 160 15 160 13 0 15 -23
15 -148 0 -102 4 -152 12 -160 7 -7 34 -12 60 -12 l48 0 0 35 c0 24 -5 35 -15
35 -13 0 -15 21 -15 125 0 104 2 125 15 125 11 0 15 11 15 40 0 29 -4 40 -15
40 -11 0 -15 11 -15 40 l0 40 -45 0 -45 0 0 -40 c0 -29 -4 -40 -15 -40 -11 0
-15 12 -15 45 l0 45 -50 0 -50 0 0 -245z"/>
<path d="M1693 1013 c-32 -6 -63 -50 -63 -89 0 -33 1 -34 44 -34 39 0 45 3 48
23 5 37 33 27 36 -14 3 -34 1 -36 -37 -48 -23 -6 -53 -22 -68 -35 -26 -23 -28
-30 -28 -99 0 -60 4 -79 19 -96 23 -25 77 -28 100 -5 15 14 16 14 16 0 0 -12
11 -16 50 -16 l50 0 0 175 0 175 -27 30 c-22 23 -39 31 -73 34 -25 2 -55 2
-67 -1z m58 -336 c-32 -32 -46 90 -13 126 16 19 17 17 20 -48 2 -38 -1 -72 -7
-78z"/>
<path d="M1870 834 c0 -215 7 -234 82 -234 25 0 40 6 47 18 10 16 10 16 11 0
0 -15 9 -18 50 -18 l50 0 0 205 0 205 -50 0 -50 0 -2 -167 c-3 -142 -5 -168
-18 -168 -13 0 -15 26 -18 168 l-2 167 -50 0 -50 0 0 -176z"/>
<path d="M2594 576 c-31 -31 -34 -40 -34 -91 0 -51 3 -60 34 -91 30 -30 40
-34 85 -34 86 0 131 46 131 134 0 37 -6 51 -34 80 -31 33 -38 36 -91 36 -52 0
-60 -3 -91 -34z"/>
</g>
</svg>
